# xmcd
#
# Track frame offsets:
#	150
#	19845
#	34977
#	63787
#	115971
#	165484
#	187292
#
# Disc length: 2534 seconds
#
# Revision: 1
# Processed by: cddbd v1.5.2PL0 Copyright (c) Steve Scherf et al.
# Submitted via: audiograbber 1.83.01
#
DISCID=5b09e407
DTITLE=Ten Years After - Positive Vibrations [remastered 2014] [Bonus Tracks]
DYEAR=2014
DGENRE=BluesRock
TTITLE0=Rock and Roll Music To The World [live in Frankfurt]
TTITLE1=Once There Was A Time [live in Frankfurt]
TTITLE2=Spoonful [live in Paris]
TTITLE3=I'm Going Home [live in Paris]
TTITLE4=Standing At The Station [live in Amsterdam]
TTITLE5=Sweet Little Sixteen [live in Atlanta]
TTITLE6=Positive Vibrations Radio Advert [1974]
EXTD=
EXTT0=
EXTT1=
EXTT2=
EXTT3=
EXTT4=
EXTT5=
EXTT6=
PLAYORDER=
